<svg xmlns="http://www.w3.org/2000/svg" width="30" height="30" viewBox="0 0 30 30"><defs><style>.a{fill:#ff3d00;}.a,.b{stroke:#fff;}.b,.d{fill:none;}.b{stroke-linecap:round;stroke-linejoin:round;stroke-miterlimit:10;}.c{stroke:none;}</style></defs><g transform="translate(-842 -161)"><g transform="translate(858.342 177.367)"><g class="a" transform="translate(-16.342 -16.367)"><rect class="c" width="30" height="30" rx="15"/><rect class="d" x="0.5" y="0.5" width="29" height="29" rx="14.5"/></g><g transform="translate(-6.629 -7.619)"><path class="b" d="M0,0H11" transform="translate(0 2.446)"/><path class="b" d="M7.336,12.227H1.223A1.224,1.224,0,0,1,0,11V2.445H1.834V1.223A1.224,1.224,0,0,1,3.057,0H5.5A1.224,1.224,0,0,1,6.725,1.223V2.445H8.56V11A1.224,1.224,0,0,1,7.336,12.227Z" transform="translate(1.223 0)"/><path class="b" d="M0,0V3.668" transform="translate(4.28 5.502)"/><path class="b" d="M0,0V3.668" transform="translate(6.725 5.502)"/></g></g></g></svg>