<svg xmlns="http://www.w3.org/2000/svg" width="30" height="30" viewBox="0 0 30 30"><defs><style>.a{fill:#009bda;}.a,.b{stroke:#fff;}.b{fill:#fff;stroke-width:0.3px;}.c{stroke:none;}.d{fill:none;}</style></defs><g transform="translate(-802 -161)"><g transform="translate(-31 -30)"><g class="a" transform="translate(833 191)"><rect class="c" width="30" height="30" rx="15"/><rect class="d" x="0.5" y="0.5" width="29" height="29" rx="14.5"/></g><g transform="translate(840.882 198.882)"><path class="b" d="M12.9,2.152,11.09.344a1.232,1.232,0,0,0-1.7,0L1.292,8.519a.3.3,0,0,0-.076.129l-1.2,4.219a.3.3,0,0,0,.372.373L4.6,12.035a.3.3,0,0,0,.129-.076l8.168-8.1a1.206,1.206,0,0,0,0-1.7Zm-4.823.383L9.182,3.644,3.395,9.431,2.979,8.6a.3.3,0,0,0-.269-.166H2.228ZM.739,12.512l.392-1.373.981.981Zm3.476-.993-1.441.412L1.321,10.477l.412-1.441h.791l.519,1.038a.3.3,0,0,0,.135.135l1.038.519v.791Zm.6-.5v-.482a.3.3,0,0,0-.166-.269L3.82,9.857,9.608,4.07l1.108,1.108Zm7.654-7.586L11.144,4.754,8.5,2.108,9.812.781a.616.616,0,0,1,.852,0l1.807,1.807a.6.6,0,0,1,0,.851Z" transform="translate(0 -0.002)"/></g></g></g></svg>