<svg xmlns="http://www.w3.org/2000/svg" width="18.11" height="18.11" viewBox="0 0 18.11 18.11"><defs><style>.a{fill:#009bda;}.b{fill:none;}</style></defs><path class="a" d="M12.383,5.991a.809.809,0,0,0-.318-.148,1.708,1.708,0,0,0-.386-.042,1.756,1.756,0,0,0-.39.042.818.818,0,0,0-.321.148.733.733,0,0,0-.215.278,1.041,1.041,0,0,0-.078.433,1.052,1.052,0,0,0,.078.429.722.722,0,0,0,.215.282.844.844,0,0,0,.321.151,1.631,1.631,0,0,0,.39.045,1.586,1.586,0,0,0,.386-.045.847.847,0,0,0,.318-.151.745.745,0,0,0,.218-.282,1.182,1.182,0,0,0,0-.863A.755.755,0,0,0,12.383,5.991ZM10.751,8.335H12.6V15.1H10.751Z" transform="translate(-2.619 -1.424)"/><path class="b" d="M0,0H18.11V18.11H0Z"/><path class="a" d="M9.055,0A9.055,9.055,0,1,0,18.11,9.055,9.056,9.056,0,0,0,9.055,0Zm0,16.6A7.546,7.546,0,1,1,16.6,9.055,7.546,7.546,0,0,1,9.055,16.6Z"/></svg>