<svg xmlns="http://www.w3.org/2000/svg" width="16.131" height="16.127" viewBox="0 0 16.131 16.127"><defs><style>.a{fill:#7b7b7b;}</style></defs><g transform="translate(-14.4 -14.4)"><path class="a" d="M24.924,16.2h0a6.155,6.155,0,1,0,.016,8.721A6.175,6.175,0,0,0,24.924,16.2Zm-.682,8.039a5.2,5.2,0,1,1-3.687-8.884,5.124,5.124,0,0,1,3.67,1.527A5.22,5.22,0,0,1,24.242,24.242Zm4.823,6.285A1.518,1.518,0,0,0,30.1,30.1h0a1.461,1.461,0,0,0,0-2.063l-2.079-2.079a1.461,1.461,0,0,0-1.039-.422,1.4,1.4,0,0,0-.633.146l-.406-.406a.482.482,0,0,0-.682.682l.406.406a1.4,1.4,0,0,0-.146.633,1.461,1.461,0,0,0,.422,1.039l2.079,2.046A1.465,1.465,0,0,0,29.065,30.527ZM26.5,26.986a.442.442,0,0,1,.146-.341.467.467,0,0,1,.341-.146.442.442,0,0,1,.341.146l2.063,2.063a.482.482,0,0,1-.682.682l-2.063-2.046A.5.5,0,0,1,26.5,26.986Z"/><path class="a" d="M30.6,26.3a4.127,4.127,0,0,0-2.972,1.251A4.218,4.218,0,0,0,26.4,30.376a.478.478,0,0,0,.471.5h.016a.5.5,0,0,0,.487-.471,3.3,3.3,0,0,1,.942-2.176,3.221,3.221,0,0,1,2.29-.958.487.487,0,1,0,0-.974Zm-2.81,6.123a.487.487,0,1,0,.487.487A.487.487,0,0,0,27.792,32.423Z" transform="translate(-10.047 -9.967)"/></g></svg>